<svg xmlns="http://www.w3.org/2000/svg" xmlns:xlink="http://www.w3.org/1999/xlink" version="1.1" id="Calque_1" x="0px" y="0px" viewBox="0 0 192.7 48" style="enable-background:new 0 0 192.7 48;" xml:space="preserve">
<style type="text/css">
	.st0{clip-path:url(#SVGID_2_);fill:#2E0058;}
	.st1{fill:#2E0058;}
	.st2{clip-path:url(#SVGID_4_);fill:#2E0058;}
	.st3{clip-path:url(#SVGID_4_);fill:#00CFFF;}
</style>
<g>
	<g>
		<defs>
			<rect id="SVGID_1_" x="-324.4" y="-281.5" width="841.9" height="595.3"/>
		</defs>
		<clipPath id="SVGID_2_">
			<use style="overflow:visible;" href="#SVGID_1_"/>
		</clipPath>
		<path class="st0" d="M75.9,0.6C80.3,0.6,84,2,87,4.9c2.9,2.9,4.4,6.6,4.4,11.1c0,4.5-1.5,8.2-4.4,11.1c-2.9,2.9-6.6,4.4-11.1,4.4    c-4.5,0-8.2-1.5-11.1-4.4c-2.9-2.9-4.4-6.6-4.4-11.1c0-4.5,1.5-8.2,4.4-11.1C67.7,2,71.4,0.6,75.9,0.6 M75.9,26.6    c3,0,5.4-1,7.2-2.9c1.8-1.9,2.8-4.5,2.8-7.6c0-3.2-0.9-5.7-2.8-7.7c-1.8-2-4.3-2.9-7.2-2.9c-3,0-5.4,1-7.2,2.9    c-1.8,2-2.8,4.5-2.8,7.7c0,3.2,0.9,5.7,2.8,7.6C70.5,25.6,72.9,26.6,75.9,26.6"/>
	</g>
	<path class="st1" d="M146.5,1h5.6l13,30h-5.8l-3-7.3h-14.1l-3.1,7.3h-5.6L146.5,1z M149.1,7.2l-5,11.8h10L149.1,7.2z"/>
	<polygon class="st1" points="184.6,5.9 168.6,5.9 168.6,1 191.4,1 191.4,5.9 174.7,26.1 191.8,26.1 191.8,31 167.9,31 167.9,26.1     "/>
	<polygon class="st1" points="1.3,1.2 10.6,1.2 17.6,21.7 17.7,21.7 24.3,1.2 33.5,1.2 33.5,31 27.4,31 27.4,9.9 27.3,9.9 20,31    14.9,31 7.6,10.1 7.5,10.1 7.5,31 1.3,31  "/>
	<g>
		<defs>
			<rect id="SVGID_3_" x="-324.4" y="-281.5" width="841.9" height="595.3"/>
		</defs>
		<clipPath id="SVGID_4_">
			<use style="overflow:visible;" href="#SVGID_3_"/>
		</clipPath>
		<path class="st2" d="M46.7,12.1L46.7,12.1c-2.2,0-4,1.8-4,4c0,2.2,1.8,4,4,4c2.2,0,4-1.8,4-4C50.8,13.9,49,12.1,46.7,12.1"/>
		<path class="st3" d="M111.8,0.9c-4.1,0-7.9,1.7-10.6,4.4s-4.4,6.5-4.4,10.6c0,3.9,1.5,7.7,4.2,10.4c2.3,2.4,5.5,4,9.3,4.5    c-5.6-2.8-9.3-8.5-9.3-14.9c0-5.9,4.8-10.8,10.8-10.8c2.2,0,4.4,0.7,6.2,2c1.7,1.2,3.1,3,3.9,5.1h4.4    C124.6,5.7,118.7,0.9,111.8,0.9"/>
		<path class="st3" d="M116.7,25.3c0.3,0,0.6,0,0.9,0c3.9,0,7.4-2.4,8.8-6h-4.7l0.1,0C120.9,21.9,119.1,24.1,116.7,25.3"/>
		<path class="st2" d="M127.5,4.4c-2.2-1.8-4.9-3-8.1-3.3c4.3,2.1,7.7,6.2,8.9,11.2h4.2C131.7,9.2,130,6.4,127.5,4.4"/>
		<path class="st2" d="M117.9,31c6.9,0,12.9-4.7,14.5-11.3H128c-0.7,2-2.1,3.7-3.8,5c-1.8,1.3-4,2.1-6.3,2.1c-3,0-5.7-1.2-7.6-3.2    c-1.9-2-3.2-4.7-3.2-7.6c0-3.8,2-7.3,5.2-9.2c-0.1,0-0.2,0-0.2,0c-2.5,0-4.8,1-6.4,2.7c-1.7,1.7-2.7,4-2.7,6.5    c0,4,1.6,7.7,4.2,10.4c2.6,2.7,6.3,4.5,10.3,4.6l0,0.3l0-0.3C117.6,31,117.8,31,117.9,31"/>
	</g>
	<polygon class="st1" points="128,12.5 128,12.5 128,12.5  "/>
</g>
<g>
	<path class="st1" d="M1.6,36.6h1.9v6.5h4v1.5H1.6V36.6z"/>
	<path class="st1" d="M9.4,36.3c0.2,0.2,0.3,0.5,0.3,0.8c0,0.2,0,0.3-0.1,0.5c0,0.2-0.1,0.4-0.2,0.7l-0.7,1.7H7.6l0.5-1.8   c-0.2-0.1-0.3-0.2-0.4-0.4c-0.1-0.2-0.2-0.4-0.2-0.6c0-0.3,0.1-0.6,0.3-0.8S8.3,36,8.6,36C8.9,36,9.2,36.1,9.4,36.3z"/>
	<path class="st1" d="M11.8,44.3c-0.5-0.3-0.9-0.6-1.2-1.1c-0.3-0.5-0.4-1-0.4-1.6s0.1-1.2,0.4-1.6c0.3-0.5,0.7-0.9,1.2-1.1   c0.5-0.3,1.1-0.4,1.8-0.4c0.7,0,1.2,0.1,1.7,0.4c0.5,0.3,0.9,0.7,1.2,1.1c0.3,0.5,0.4,1,0.4,1.6s-0.1,1.2-0.4,1.6   c-0.3,0.5-0.7,0.9-1.2,1.1c-0.5,0.3-1.1,0.4-1.7,0.4C12.9,44.7,12.3,44.6,11.8,44.3z M14.7,42.8c0.3-0.3,0.4-0.7,0.4-1.2   s-0.1-0.9-0.4-1.2c-0.3-0.3-0.7-0.5-1.1-0.5s-0.8,0.2-1.1,0.5C12.1,40.6,12,41,12,41.6s0.1,0.9,0.4,1.2c0.3,0.3,0.7,0.5,1.1,0.5   S14.4,43.1,14.7,42.8z"/>
	<path class="st1" d="M19.4,44.3c-0.5-0.3-0.9-0.6-1.2-1.1c-0.3-0.5-0.4-1-0.4-1.6s0.1-1.2,0.4-1.6c0.3-0.5,0.7-0.9,1.2-1.1   c0.5-0.3,1.1-0.4,1.8-0.4c0.7,0,1.2,0.1,1.7,0.4c0.5,0.3,0.8,0.7,1.1,1.2l-1.4,0.7c-0.3-0.6-0.8-0.9-1.4-0.9   c-0.5,0-0.9,0.2-1.2,0.5s-0.5,0.7-0.5,1.3c0,0.5,0.2,0.9,0.5,1.3s0.7,0.5,1.2,0.5c0.6,0,1.1-0.3,1.4-0.9l1.4,0.8   c-0.2,0.5-0.6,0.9-1.1,1.1c-0.5,0.3-1.1,0.4-1.7,0.4C20.5,44.7,19.9,44.6,19.4,44.3z"/>
	<path class="st1" d="M26.1,44.3c-0.5-0.3-0.9-0.6-1.2-1.1c-0.3-0.5-0.4-1-0.4-1.6s0.1-1.2,0.4-1.6c0.3-0.5,0.7-0.9,1.2-1.1   c0.5-0.3,1.1-0.4,1.8-0.4c0.7,0,1.2,0.1,1.7,0.4c0.5,0.3,0.8,0.7,1.1,1.2l-1.4,0.7c-0.3-0.6-0.8-0.9-1.4-0.9   c-0.5,0-0.9,0.2-1.2,0.5s-0.5,0.7-0.5,1.3c0,0.5,0.2,0.9,0.5,1.3s0.7,0.5,1.2,0.5c0.6,0,1.1-0.3,1.4-0.9l1.4,0.8   c-0.2,0.5-0.6,0.9-1.1,1.1c-0.5,0.3-1.1,0.4-1.7,0.4C27.2,44.7,26.6,44.6,26.1,44.3z"/>
	<path class="st1" d="M36.4,39.1c0.5,0.5,0.8,1.1,0.8,2.1v3.5h-1.7v-0.8c-0.3,0.6-1,0.9-1.9,0.9c-0.5,0-0.9-0.1-1.2-0.2   c-0.3-0.2-0.6-0.4-0.8-0.7s-0.3-0.6-0.3-1c0-0.6,0.2-1,0.6-1.4c0.4-0.3,1.1-0.5,2-0.5h1.4c0-0.4-0.1-0.7-0.4-0.9   c-0.2-0.2-0.6-0.3-1.1-0.3c-0.3,0-0.7,0.1-1,0.2c-0.3,0.1-0.6,0.2-0.8,0.4l-0.6-1.3c0.3-0.2,0.7-0.4,1.2-0.6c0.5-0.1,1-0.2,1.5-0.2   C35.1,38.4,35.9,38.6,36.4,39.1z M34.9,43.3c0.2-0.1,0.4-0.4,0.5-0.6v-0.6h-1.2c-0.7,0-1.1,0.2-1.1,0.7c0,0.2,0.1,0.4,0.3,0.5   c0.2,0.1,0.4,0.2,0.7,0.2C34.3,43.5,34.6,43.5,34.9,43.3z"/>
	<path class="st1" d="M39.4,44.6c-0.5-0.1-0.9-0.3-1.2-0.5l0.6-1.3c0.3,0.2,0.6,0.3,1,0.4s0.8,0.2,1.1,0.2c0.8,0,1.1-0.2,1.1-0.6   c0-0.2-0.1-0.3-0.3-0.4c-0.2-0.1-0.5-0.1-1-0.2c-0.5-0.1-0.9-0.2-1.3-0.3c-0.3-0.1-0.6-0.3-0.9-0.5c-0.2-0.3-0.4-0.6-0.4-1.1   c0-0.4,0.1-0.7,0.3-1s0.6-0.5,1-0.7c0.4-0.2,0.9-0.3,1.5-0.3c0.4,0,0.9,0,1.3,0.1c0.4,0.1,0.8,0.2,1.1,0.4L43,40.2   c-0.5-0.3-1.1-0.5-1.8-0.5c-0.4,0-0.7,0.1-0.9,0.2C40.1,40,40,40.1,40,40.3c0,0.2,0.1,0.3,0.3,0.4c0.2,0.1,0.5,0.1,1,0.2   c0.5,0.1,0.9,0.2,1.2,0.3c0.3,0.1,0.6,0.3,0.8,0.5c0.2,0.3,0.4,0.6,0.4,1.1c0,0.4-0.1,0.7-0.3,1c-0.2,0.3-0.6,0.5-1,0.7   c-0.4,0.2-1,0.2-1.6,0.2C40.3,44.7,39.8,44.7,39.4,44.6z"/>
	<path class="st1" d="M45,37.3c-0.2-0.2-0.3-0.4-0.3-0.7c0-0.3,0.1-0.5,0.3-0.7s0.5-0.3,0.8-0.3s0.6,0.1,0.8,0.3   c0.2,0.2,0.3,0.4,0.3,0.7c0,0.3-0.1,0.5-0.3,0.7c-0.2,0.2-0.5,0.3-0.8,0.3S45.2,37.5,45,37.3z M44.9,38.5h1.8v6.2h-1.8V38.5z"/>
	<path class="st1" d="M49.5,44.3c-0.5-0.3-0.9-0.6-1.2-1.1c-0.3-0.5-0.4-1-0.4-1.6s0.1-1.2,0.4-1.6c0.3-0.5,0.7-0.9,1.2-1.1   c0.5-0.3,1.1-0.4,1.8-0.4c0.7,0,1.2,0.1,1.7,0.4c0.5,0.3,0.9,0.7,1.2,1.1c0.3,0.5,0.4,1,0.4,1.6s-0.1,1.2-0.4,1.6   c-0.3,0.5-0.7,0.9-1.2,1.1c-0.5,0.3-1.1,0.4-1.7,0.4C50.6,44.7,50.1,44.6,49.5,44.3z M52.4,42.8c0.3-0.3,0.4-0.7,0.4-1.2   s-0.1-0.9-0.4-1.2c-0.3-0.3-0.7-0.5-1.1-0.5s-0.8,0.2-1.1,0.5c-0.3,0.3-0.4,0.7-0.4,1.2s0.1,0.9,0.4,1.2c0.3,0.3,0.7,0.5,1.1,0.5   S52.1,43.1,52.4,42.8z"/>
	<path class="st1" d="M61.5,39.1c0.5,0.5,0.7,1.1,0.7,2v3.5h-1.8v-3.3c0-0.5-0.1-0.9-0.3-1.1c-0.2-0.2-0.5-0.4-0.9-0.4   c-0.5,0-0.8,0.1-1.1,0.4s-0.4,0.7-0.4,1.2v3.1h-1.8v-6.2h1.7v0.7c0.2-0.3,0.5-0.5,0.9-0.6c0.4-0.1,0.7-0.2,1.2-0.2   C60.4,38.4,61,38.6,61.5,39.1z"/>
	<path class="st1" d="M73.4,36.1v8.5h-1.7v-0.7c-0.4,0.5-1.1,0.8-1.9,0.8c-0.6,0-1.1-0.1-1.6-0.4c-0.5-0.3-0.8-0.6-1.1-1.1   c-0.3-0.5-0.4-1-0.4-1.7c0-0.6,0.1-1.2,0.4-1.7s0.6-0.9,1.1-1.1c0.5-0.3,1-0.4,1.6-0.4c0.8,0,1.4,0.3,1.9,0.7v-3H73.4z M71.2,42.8   c0.3-0.3,0.4-0.7,0.4-1.2s-0.1-0.9-0.4-1.2c-0.3-0.3-0.7-0.5-1.1-0.5c-0.5,0-0.8,0.2-1.1,0.5c-0.3,0.3-0.4,0.7-0.4,1.2   s0.1,0.9,0.4,1.2c0.3,0.3,0.7,0.5,1.1,0.5C70.5,43.3,70.9,43.1,71.2,42.8z"/>
	<path class="st1" d="M76.5,36.3c0.2,0.2,0.3,0.5,0.3,0.8c0,0.2,0,0.3-0.1,0.5c0,0.2-0.1,0.4-0.2,0.7l-0.7,1.7h-1.1l0.5-1.8   c-0.2-0.1-0.3-0.2-0.4-0.4c-0.1-0.2-0.2-0.4-0.2-0.6c0-0.3,0.1-0.6,0.3-0.8s0.5-0.3,0.8-0.3C76,36,76.3,36.1,76.5,36.3z"/>
	<path class="st1" d="M84.3,38.5v6.2h-1.7v-0.7c-0.2,0.3-0.5,0.5-0.9,0.6c-0.3,0.1-0.7,0.2-1.1,0.2c-0.8,0-1.5-0.2-1.9-0.7   C78.3,43.6,78,42.9,78,42v-3.5h1.8v3.2c0,1,0.4,1.5,1.3,1.5c0.4,0,0.8-0.1,1-0.4c0.3-0.3,0.4-0.7,0.4-1.2v-3.1H84.3z"/>
	<path class="st1" d="M91.6,39.1c0.5,0.5,0.7,1.1,0.7,2v3.5h-1.8v-3.3c0-0.5-0.1-0.9-0.3-1.1s-0.5-0.4-0.9-0.4   c-0.5,0-0.8,0.1-1.1,0.4s-0.4,0.7-0.4,1.2v3.1h-1.8v-6.2h1.7v0.7c0.2-0.3,0.5-0.5,0.9-0.6c0.4-0.1,0.7-0.2,1.2-0.2   C90.5,38.4,91.1,38.6,91.6,39.1z"/>
	<path class="st1" d="M102.8,39.1c0.5,0.5,0.7,1.1,0.7,2v3.5h-1.8v-3.3c0-0.5-0.1-0.9-0.3-1.1s-0.5-0.4-0.9-0.4   c-0.5,0-0.8,0.1-1.1,0.4s-0.4,0.7-0.4,1.2v3.1h-1.8v-6.2h1.7v0.7c0.2-0.3,0.5-0.5,0.9-0.6c0.4-0.1,0.7-0.2,1.2-0.2   C101.7,38.4,102.3,38.6,102.8,39.1z"/>
	<path class="st1" d="M106.4,44.3c-0.5-0.3-0.9-0.6-1.2-1.1c-0.3-0.5-0.4-1-0.4-1.6s0.1-1.2,0.4-1.6c0.3-0.5,0.7-0.9,1.2-1.1   c0.5-0.3,1.1-0.4,1.8-0.4c0.7,0,1.2,0.1,1.7,0.4c0.5,0.3,0.9,0.7,1.2,1.1c0.3,0.5,0.4,1,0.4,1.6s-0.1,1.2-0.4,1.6   c-0.3,0.5-0.7,0.9-1.2,1.1c-0.5,0.3-1.1,0.4-1.7,0.4C107.5,44.7,106.9,44.6,106.4,44.3z M109.2,42.8c0.3-0.3,0.4-0.7,0.4-1.2   s-0.1-0.9-0.4-1.2c-0.3-0.3-0.7-0.5-1.1-0.5c-0.5,0-0.8,0.2-1.1,0.5s-0.4,0.7-0.4,1.2s0.2,0.9,0.4,1.2s0.7,0.5,1.1,0.5   C108.6,43.3,108.9,43.1,109.2,42.8z"/>
	<path class="st1" d="M118.9,38.5v6.2h-1.7v-0.7c-0.2,0.3-0.5,0.5-0.9,0.6c-0.3,0.1-0.7,0.2-1.1,0.2c-0.8,0-1.5-0.2-1.9-0.7   c-0.5-0.5-0.7-1.2-0.7-2.1v-3.5h1.8v3.2c0,1,0.4,1.5,1.3,1.5c0.4,0,0.8-0.1,1-0.4c0.3-0.3,0.4-0.7,0.4-1.2v-3.1H118.9z"/>
	<path class="st1" d="M126.7,38.5l-2.6,6.2h-1.9l-2.6-6.2h1.9l1.7,4.2l1.8-4.2H126.7z"/>
	<path class="st1" d="M133.3,42.1h-4.7c0.1,0.4,0.3,0.7,0.6,0.9c0.3,0.2,0.7,0.3,1.2,0.3c0.3,0,0.6,0,0.9-0.1   c0.3-0.1,0.5-0.2,0.7-0.5l1,1c-0.6,0.7-1.4,1-2.6,1c-0.7,0-1.3-0.1-1.9-0.4c-0.5-0.3-1-0.6-1.2-1.1c-0.3-0.5-0.4-1-0.4-1.6   c0-0.6,0.1-1.2,0.4-1.6c0.3-0.5,0.7-0.9,1.2-1.1c0.5-0.3,1.1-0.4,1.7-0.4c0.6,0,1.2,0.1,1.6,0.4c0.5,0.3,0.9,0.6,1.2,1.1   c0.3,0.5,0.4,1.1,0.4,1.7C133.4,41.6,133.4,41.8,133.3,42.1z M129.1,40.1c-0.3,0.2-0.4,0.5-0.5,0.9h3c-0.1-0.4-0.2-0.7-0.5-0.9   c-0.3-0.2-0.6-0.4-1-0.4C129.7,39.7,129.4,39.8,129.1,40.1z"/>
	<path class="st1" d="M139.1,39.1c0.5,0.5,0.8,1.1,0.8,2.1v3.5h-1.7v-0.8c-0.3,0.6-1,0.9-1.9,0.9c-0.5,0-0.9-0.1-1.2-0.2   c-0.3-0.2-0.6-0.4-0.8-0.7c-0.2-0.3-0.3-0.6-0.3-1c0-0.6,0.2-1,0.6-1.4c0.4-0.3,1.1-0.5,2-0.5h1.4c0-0.4-0.1-0.7-0.4-0.9   c-0.2-0.2-0.6-0.3-1.1-0.3c-0.3,0-0.7,0.1-1,0.2c-0.3,0.1-0.6,0.2-0.8,0.4l-0.6-1.3c0.3-0.2,0.7-0.4,1.2-0.6c0.5-0.1,1-0.2,1.5-0.2   C137.8,38.4,138.6,38.6,139.1,39.1z M137.6,43.3c0.2-0.1,0.4-0.4,0.5-0.6v-0.6h-1.2c-0.7,0-1.1,0.2-1.1,0.7c0,0.2,0.1,0.4,0.3,0.5   c0.2,0.1,0.4,0.2,0.7,0.2C137.1,43.5,137.3,43.5,137.6,43.3z"/>
	<path class="st1" d="M147.7,38.5v6.2H146v-0.7c-0.2,0.3-0.5,0.5-0.9,0.6c-0.3,0.1-0.7,0.2-1.1,0.2c-0.8,0-1.5-0.2-1.9-0.7   c-0.5-0.5-0.7-1.2-0.7-2.1v-3.5h1.8v3.2c0,1,0.4,1.5,1.3,1.5c0.4,0,0.8-0.1,1-0.4c0.3-0.3,0.4-0.7,0.4-1.2v-3.1H147.7z"/>
	<path class="st1" d="M158.9,36.1v8.5h-1.7v-0.7c-0.4,0.5-1.1,0.8-1.9,0.8c-0.6,0-1.1-0.1-1.6-0.4s-0.8-0.6-1.1-1.1   c-0.3-0.5-0.4-1-0.4-1.7c0-0.6,0.1-1.2,0.4-1.7c0.3-0.5,0.6-0.9,1.1-1.1s1-0.4,1.6-0.4c0.8,0,1.4,0.3,1.9,0.7v-3H158.9z    M156.7,42.8c0.3-0.3,0.4-0.7,0.4-1.2s-0.1-0.9-0.4-1.2s-0.7-0.5-1.1-0.5c-0.5,0-0.8,0.2-1.1,0.5S154,41,154,41.6s0.1,0.9,0.4,1.2   s0.7,0.5,1.1,0.5C156.1,43.3,156.4,43.1,156.7,42.8z"/>
	<path class="st1" d="M166.6,42.1h-4.7c0.1,0.4,0.3,0.7,0.6,0.9c0.3,0.2,0.7,0.3,1.2,0.3c0.3,0,0.6,0,0.9-0.1   c0.3-0.1,0.5-0.2,0.7-0.5l1,1c-0.6,0.7-1.4,1-2.6,1c-0.7,0-1.3-0.1-1.9-0.4c-0.5-0.3-1-0.6-1.2-1.1c-0.3-0.5-0.4-1-0.4-1.6   c0-0.6,0.1-1.2,0.4-1.6c0.3-0.5,0.7-0.9,1.2-1.1c0.5-0.3,1.1-0.4,1.7-0.4c0.6,0,1.2,0.1,1.6,0.4c0.5,0.3,0.9,0.6,1.2,1.1   c0.3,0.5,0.4,1.1,0.4,1.7C166.7,41.6,166.6,41.8,166.6,42.1z M162.4,40.1c-0.3,0.2-0.4,0.5-0.5,0.9h3c-0.1-0.4-0.2-0.7-0.5-0.9   c-0.3-0.2-0.6-0.4-1-0.4C163,39.7,162.7,39.8,162.4,40.1z M163.9,36h1.9l-2.1,1.7h-1.4L163.9,36z"/>
	<path class="st1" d="M173.1,38.8c0.5,0.3,0.8,0.6,1.1,1.1c0.3,0.5,0.4,1,0.4,1.7c0,0.6-0.1,1.2-0.4,1.7c-0.3,0.5-0.6,0.9-1.1,1.1   s-1,0.4-1.6,0.4c-0.8,0-1.4-0.2-1.9-0.7v2.9h-1.8v-8.4h1.7v0.7c0.4-0.5,1.1-0.8,1.9-0.8C172.1,38.4,172.6,38.5,173.1,38.8z    M172.3,42.8c0.3-0.3,0.4-0.7,0.4-1.2s-0.1-0.9-0.4-1.2c-0.3-0.3-0.7-0.5-1.1-0.5s-0.8,0.2-1.1,0.5c-0.3,0.3-0.4,0.7-0.4,1.2   s0.1,0.9,0.4,1.2c0.3,0.3,0.7,0.5,1.1,0.5S172,43.1,172.3,42.8z"/>
	<path class="st1" d="M180.4,39.1c0.5,0.5,0.8,1.1,0.8,2.1v3.5h-1.7v-0.8c-0.3,0.6-1,0.9-1.9,0.9c-0.5,0-0.9-0.1-1.2-0.2   c-0.3-0.2-0.6-0.4-0.8-0.7c-0.2-0.3-0.3-0.6-0.3-1c0-0.6,0.2-1,0.6-1.4c0.4-0.3,1.1-0.5,2-0.5h1.4c0-0.4-0.1-0.7-0.4-0.9   c-0.2-0.2-0.6-0.3-1.1-0.3c-0.3,0-0.7,0.1-1,0.2c-0.3,0.1-0.6,0.2-0.8,0.4l-0.6-1.3c0.3-0.2,0.7-0.4,1.2-0.6c0.5-0.1,1-0.2,1.5-0.2   C179.1,38.4,179.9,38.6,180.4,39.1z M178.9,43.3c0.2-0.1,0.4-0.4,0.5-0.6v-0.6h-1.2c-0.7,0-1.1,0.2-1.1,0.7c0,0.2,0.1,0.4,0.3,0.5   c0.2,0.1,0.4,0.2,0.7,0.2C178.3,43.5,178.6,43.5,178.9,43.3z"/>
	<path class="st1" d="M185.4,38.6c0.4-0.2,0.8-0.2,1.3-0.2V40c-0.2,0-0.3,0-0.4,0c-0.5,0-0.9,0.1-1.2,0.4c-0.3,0.3-0.4,0.7-0.4,1.3   v2.9h-1.8v-6.2h1.7v0.8C184.7,39,185,38.8,185.4,38.6z"/>
	<path class="st1" d="M191.9,44.4c-0.2,0.1-0.4,0.2-0.6,0.3c-0.3,0.1-0.5,0.1-0.8,0.1c-0.7,0-1.3-0.2-1.7-0.6   c-0.4-0.4-0.6-0.9-0.6-1.7V40h-1v-1.4h1v-1.5h1.8v1.5h1.5V40h-1.5v2.5c0,0.3,0.1,0.5,0.2,0.6c0.1,0.1,0.3,0.2,0.6,0.2   c0.3,0,0.5-0.1,0.7-0.2L191.9,44.4z"/>
</g>
</svg>