<svg width="90" height="90" viewBox="0 0 90 90" fill="none" xmlns="http://www.w3.org/2000/svg">
<rect width="90" height="90" rx="5" fill="#2B1653"/>
<path d="M61.7078 41.0771C61.7078 41.0771 61.7339 41.1811 61.7469 41.2332H67.9699C66.1082 32.8946 58.8306 26 48.3244 26C54.8599 28.2505 60.1325 33.8572 61.7078 41.0771ZM48.2983 64.987C37.8051 64.6618 29.4078 55.8809 29.4078 45.5C29.4078 38.1761 35.9303 32.4523 43.247 33.532C38.7034 35.7045 35.6569 40.3746 35.6569 45.5C35.6569 52.6938 41.5936 58.7558 48.9232 58.7558C54.7036 58.7558 59.742 54.8923 61.4865 49.7668H67.9699C65.939 58.8729 57.698 65.2862 48.2983 64.987Z" fill="white"/>
<path d="M60.2496 49.7929C60.2496 49.7929 60.2496 49.7929 60.2496 49.7799H54.0657C52.907 53.2011 50.4073 55.959 47.1786 57.494C52.8549 58.3135 58.2838 54.9703 60.2366 49.8059M22 45.5C22 34.7548 30.7487 26 41.5154 26C50.6807 26 58.5442 32.3612 60.5361 41.1421C60.5361 41.1681 60.5361 41.1941 60.5491 41.2201H54.0657C52.217 35.8085 46.9833 32.2312 41.5024 32.2312C34.1987 32.2312 28.2491 38.1761 28.2491 45.487C28.2491 54.2939 33.8342 62.1121 42.1143 64.987C29.9155 65 22 55.6208 22 45.5Z" fill="#39C6F3"/>
</svg>
