<svg width="58" height="50" viewBox="0 0 58 50" fill="none" xmlns="http://www.w3.org/2000/svg">
<path d="M50.0991 19.0226C50.0991 19.0226 50.132 19.1539 50.1484 19.2196H58C55.6511 8.69887 46.469 0 33.2133 0C41.4591 2.83944 48.1116 9.91343 50.0991 19.0226ZM33.1804 49.1897C19.9412 48.7793 9.34644 37.7006 9.34644 24.603C9.34644 15.3625 17.5758 8.14083 26.8072 9.50311C21.0745 12.2441 17.2309 18.1363 17.2309 24.603C17.2309 33.6794 24.7211 41.3278 33.9689 41.3278C41.262 41.3278 47.6188 36.4532 49.8199 29.9865H58C55.4376 41.4756 45.04 49.5672 33.1804 49.1897Z" fill="#2B1653"/>
<path d="M48.2593 30.0193C48.2593 30.0193 48.2593 30.0193 48.2593 30.0029H40.457C38.9951 34.3195 35.8414 37.7991 31.7677 39.7358C38.9294 40.7698 45.779 36.5517 48.2429 30.0357M0 24.603C0 11.0459 11.0382 0 24.6225 0C36.1863 0 46.1076 8.02594 48.6207 19.1047C48.6207 19.1375 48.6207 19.1703 48.6371 19.2032H40.457C38.1246 12.3754 31.5213 7.86181 24.606 7.86181C15.3911 7.86181 7.88444 15.3625 7.88444 24.5866C7.88444 35.6982 14.9312 45.5624 25.378 49.1897C9.98696 49.2061 0 37.3723 0 24.603Z" fill="#39C6F3"/>
</svg>
